<?xml version="1.0" encoding="UTF-8" standalone="no"?>
<!-- Created with Inkscape (http://www.inkscape.org/) -->

<svg
   xmlns:dc="http://purl.org/dc/elements/1.1/"
   xmlns:cc="http://creativecommons.org/ns#"
   xmlns:rdf="http://www.w3.org/1999/02/22-rdf-syntax-ns#"
   xmlns:svg="http://www.w3.org/2000/svg"
   xmlns="http://www.w3.org/2000/svg"
   xmlns:sodipodi="http://sodipodi.sourceforge.net/DTD/sodipodi-0.dtd"
   xmlns:inkscape="http://www.inkscape.org/namespaces/inkscape"
   width="500"
   height="500"
   id="svg2"
   version="1.1"
   inkscape:version="0.48.4 r9939"
   sodipodi:docname="AngularBeginLogo.svg">
  <defs
     id="defs4" />
  <sodipodi:namedview
     id="base"
     pagecolor="#ffffff"
     bordercolor="#666666"
     borderopacity="1.0"
     inkscape:pageopacity="0.0"
     inkscape:pageshadow="2"
     inkscape:zoom="1"
     inkscape:cx="405"
     inkscape:cy="212.66415"
     inkscape:document-units="px"
     inkscape:current-layer="layer4"
     showgrid="false"
     inkscape:window-width="1366"
     inkscape:window-height="744"
     inkscape:window-x="0"
     inkscape:window-y="24"
     inkscape:window-maximized="1"
     showguides="true"
     inkscape:guide-bbox="true" />
  <metadata
     id="metadata7">
    <rdf:RDF>
      <cc:Work
         rdf:about="">
        <dc:format>image/svg+xml</dc:format>
        <dc:type
           rdf:resource="http://purl.org/dc/dcmitype/StillImage" />
        <dc:title></dc:title>
      </cc:Work>
    </rdf:RDF>
  </metadata>
  <g
     inkscape:groupmode="layer"
     id="layer4"
     inkscape:label="A Left"
     style="display:inline">
    <g
       id="g5171">
      <g
         id="g5159">
        <path
           style="fill:#b3b3b3;fill-opacity:1;stroke:none;display:inline"
           d="m 250,21.5 -213,74 35,282 178,101 L 250,454 87.5,364.5 58,112.5 250,44.5 z"
           id="path3193"
           inkscape:connector-curvature="0" />
        <path
           inkscape:connector-curvature="0"
           id="path4016"
           d="m 250,21.5 213,74 -35,282 -178,101 0,-24.5 162.5,-89.5 29.5,-252 -192,-68 z"
           style="fill:#b3b3b3;fill-opacity:1;stroke:none;display:inline" />
      </g>
      <g
         id="g5163">
        <path
           style="fill:#d43536;fill-opacity:1;stroke:none;display:inline"
           d="m 250,44.5 -192,68 29.5,252 L 250,454 z"
           id="path4009"
           inkscape:connector-curvature="0" />
        <path
           inkscape:connector-curvature="0"
           id="path4020"
           d="m 250,44.5 192,68 -29.5,252 L 250,454 z"
           style="fill:#ae2f30;fill-opacity:1;stroke:none;display:inline" />
      </g>
      <g
         id="g5167">
        <path
           inkscape:connector-curvature="0"
           id="path4024"
           d="m 250,59.5 134,295 -50,0 -27,-66.5 -57,0 0,-40 40,0 -40,-93 z"
           style="fill:#b3b3b3;fill-opacity:1;stroke:none;display:inline" />
        <path
           style="fill:#f2f1f1;fill-opacity:1;stroke:none"
           d="m 250,59.5 -134,295 50,0 27,-66.5 57,0 0,-40 -40,0 40,-93 z"
           id="path4012"
           inkscape:connector-curvature="0" />
      </g>
    </g>
  </g>
</svg>
