<?xml version="1.0" encoding="UTF-8" standalone="no"?>
<!-- Created with Inkscape (http://www.inkscape.org/) -->

<svg
   xmlns:dc="http://purl.org/dc/elements/1.1/"
   xmlns:cc="http://creativecommons.org/ns#"
   xmlns:rdf="http://www.w3.org/1999/02/22-rdf-syntax-ns#"
   xmlns:svg="http://www.w3.org/2000/svg"
   xmlns="http://www.w3.org/2000/svg"
   xmlns:sodipodi="http://sodipodi.sourceforge.net/DTD/sodipodi-0.dtd"
   xmlns:inkscape="http://www.inkscape.org/namespaces/inkscape"
   width="500"
   height="500"
   id="svg2"
   version="1.1"
   inkscape:version="0.48.4 r9939"
   sodipodi:docname="AngularBeginLogo.svg">
  <defs
     id="defs4" />
  <sodipodi:namedview
     id="base"
     pagecolor="#ffffff"
     bordercolor="#666666"
     borderopacity="1.0"
     inkscape:pageopacity="0.0"
     inkscape:pageshadow="2"
     inkscape:zoom="0.86860648"
     inkscape:cx="-14.835814"
     inkscape:cy="304.06901"
     inkscape:document-units="px"
     inkscape:current-layer="layer4"
     showgrid="false"
     inkscape:window-width="1366"
     inkscape:window-height="744"
     inkscape:window-x="0"
     inkscape:window-y="24"
     inkscape:window-maximized="1"
     showguides="true"
     inkscape:guide-bbox="true" />
  <metadata
     id="metadata7">
    <rdf:RDF>
      <cc:Work
         rdf:about="">
        <dc:format>image/svg+xml</dc:format>
        <dc:type
           rdf:resource="http://purl.org/dc/dcmitype/StillImage" />
        <dc:title></dc:title>
      </cc:Work>
    </rdf:RDF>
  </metadata>
  <g
     inkscape:groupmode="layer"
     id="layer4"
     inkscape:label="A Left"
     style="display:inline">
    <g
       id="g5388"
       transform="matrix(0.94054478,0,0,0.94054478,14.863806,39.161211)">
      <g
         id="g5368">
        <g
           id="g5199">
          <g
             id="g5201">
            <path
               inkscape:connector-curvature="0"
               id="path5203"
               d="m 250,21.5 -213,74 35,282 178,101 L 250,454 87.5,364.5 58,112.5 250,44.5 z"
               style="fill:#b3b3b3;fill-opacity:1;stroke:none;display:inline" />
            <path
               style="fill:#b3b3b3;fill-opacity:1;stroke:none;display:inline"
               d="m 250,21.5 213,74 -35,282 -178,101 0,-24.5 162.5,-89.5 29.5,-252 -192,-68 z"
               id="path5205"
               inkscape:connector-curvature="0" />
          </g>
          <g
             id="g5207">
            <path
               inkscape:connector-curvature="0"
               id="path5209"
               d="m 250,44.5 -192,68 29.5,252 L 250,454 z"
               style="fill:#d43536;fill-opacity:1;stroke:none;display:inline" />
            <path
               style="fill:#ae2f30;fill-opacity:1;stroke:none;display:inline"
               d="m 250,44.5 192,68 -29.5,252 L 250,454 z"
               id="path5211"
               inkscape:connector-curvature="0" />
          </g>
        </g>
        <g
           id="g5213"
           transform="matrix(0.33333333,0,0,0.33333333,166.66667,-37.33333)">
          <g
             id="g5191">
            <g
               id="g5159">
              <path
                 inkscape:connector-curvature="0"
                 id="path3193"
                 d="m 250,21.5 -213,74 35,282 178,101 L 250,454 87.5,364.5 58,112.5 250,44.5 z"
                 style="fill:#b3b3b3;fill-opacity:1;stroke:none;display:inline" />
              <path
                 style="fill:#b3b3b3;fill-opacity:1;stroke:none;display:inline"
                 d="m 250,21.5 213,74 -35,282 -178,101 0,-24.5 162.5,-89.5 29.5,-252 -192,-68 z"
                 id="path4016"
                 inkscape:connector-curvature="0" />
            </g>
            <g
               id="g5163">
              <path
                 inkscape:connector-curvature="0"
                 id="path4009"
                 d="m 250,44.5 -192,68 29.5,252 L 250,454 z"
                 style="fill:#d43536;fill-opacity:1;stroke:none;display:inline" />
              <path
                 style="fill:#ae2f30;fill-opacity:1;stroke:none;display:inline"
                 d="m 250,44.5 192,68 -29.5,252 L 250,454 z"
                 id="path4020"
                 inkscape:connector-curvature="0" />
            </g>
          </g>
          <g
             id="g5167">
            <path
               inkscape:connector-curvature="0"
               id="path4024"
               d="m 250,59.5 134,295 -50,0 -27,-66.5 -57,0 0,-40 40,0 -40,-93 z"
               style="fill:#b3b3b3;fill-opacity:1;stroke:none;display:inline" />
            <path
               style="fill:#f2f1f1;fill-opacity:1;stroke:none"
               d="m 250,59.5 -134,295 50,0 27,-66.5 57,0 0,-40 -40,0 40,-93 z"
               id="path4012"
               inkscape:connector-curvature="0" />
          </g>
        </g>
      </g>
      <g
         transform="translate(18.819668,3.2457477)"
         id="g5357">
        <g
           id="g5341"
           transform="translate(-29.306533,6.5125628)">
          <path
             sodipodi:nodetypes="csccsc"
             inkscape:connector-curvature="0"
             id="path5337"
             d="m 134.32161,215.88945 c 0,0 12.88696,61.89848 89.54774,95.24623 66.66365,28.99895 59.47707,82.28103 59.42713,82.2211 l -4.49784,-0.23844 c 0,0 8.27471,-42.23314 -70.39663,-85.23894 -74.92691,-40.9589 -74.0804,-91.98995 -74.0804,-91.98995 z"
             style="fill:#ffffff;fill-opacity:1;stroke:none" />
          <path
             sodipodi:nodetypes="cscccsc"
             inkscape:connector-curvature="0"
             id="path5339"
             d="M 277.59799,352.65327 C 276.24651,322.13522 284.31637,264.87183 224.68341,243.1608 140.83417,212.63317 128.21608,193.50252 128.21608,193.50252 97.933806,238.69305 117.015,395.63921 269.45729,368.1206 160.8606,372.64158 95.723803,292.4325 128.21608,197.9799 c 5.23344,6.39318 53.33257,36.69885 95.85678,50.47237 44.5639,14.43418 48.14635,78.30295 53.52513,104.201 z"
             style="fill:#ffffff;fill-opacity:1;stroke:none" />
        </g>
        <g
           transform="matrix(-0.81101706,0.12617931,0.12617931,0.81101706,437.43668,44.234804)"
           id="g5345">
          <path
             style="fill:#ffffff;fill-opacity:1;stroke:none"
             d="m 134.32161,215.88945 c 0,0 12.88696,61.89848 89.54774,95.24623 66.66365,28.99895 59.47707,82.28103 59.42713,82.2211 l -4.49784,-0.23844 c 0,0 8.27471,-42.23314 -70.39663,-85.23894 -74.92691,-40.9589 -74.0804,-91.98995 -74.0804,-91.98995 z"
             id="path5347"
             inkscape:connector-curvature="0"
             sodipodi:nodetypes="csccsc" />
          <path
             style="fill:#ffffff;fill-opacity:1;stroke:none"
             d="M 277.59799,352.65327 C 276.24651,322.13522 284.31637,264.87183 224.68341,243.1608 140.83417,212.63317 128.21608,193.50252 128.21608,193.50252 97.933806,238.69305 117.015,395.63921 269.45729,368.1206 160.8606,372.64158 95.723803,292.4325 128.21608,197.9799 c 5.23344,6.39318 53.33257,36.69885 95.85678,50.47237 44.5639,14.43418 48.14635,78.30295 53.52513,104.201 z"
             id="path5349"
             inkscape:connector-curvature="0"
             sodipodi:nodetypes="cscccsc" />
        </g>
        <g
           id="g5351"
           transform="matrix(-0.72339699,0.38777143,0.38777143,0.72339699,302.69052,-96.058562)">
          <path
             sodipodi:nodetypes="csccsc"
             inkscape:connector-curvature="0"
             id="path5353"
             d="m 134.32161,215.88945 c 0,0 12.88696,61.89848 89.54774,95.24623 66.66365,28.99895 59.47707,82.28103 59.42713,82.2211 l -4.49784,-0.23844 c 0,0 8.27471,-42.23314 -70.39663,-85.23894 -74.92691,-40.9589 -74.0804,-91.98995 -74.0804,-91.98995 z"
             style="fill:#ffffff;fill-opacity:1;stroke:none" />
          <path
             sodipodi:nodetypes="cscccsc"
             inkscape:connector-curvature="0"
             id="path5355"
             d="M 277.59799,352.65327 C 276.24651,322.13522 284.31637,264.87183 224.68341,243.1608 140.83417,212.63317 128.21608,193.50252 128.21608,193.50252 97.933806,238.69305 117.015,395.63921 269.45729,368.1206 160.8606,372.64158 95.723803,292.4325 128.21608,197.9799 c 5.23344,6.39318 53.33257,36.69885 95.85678,50.47237 44.5639,14.43418 48.14635,78.30295 53.52513,104.201 z"
             style="fill:#ffffff;fill-opacity:1;stroke:none" />
        </g>
      </g>
    </g>
  </g>
</svg>
